<?xml version="1.0" encoding="UTF-8" standalone="no"?>
<!DOCTYPE svg PUBLIC "-//W3C//DTD SVG 1.1//EN" "http://www.w3.org/Graphics/SVG/1.1/DTD/svg11.dtd">
<svg width="100%" height="100%" viewBox="0 0 1363 1555" version="1.1" xmlns="http://www.w3.org/2000/svg" xmlns:xlink="http://www.w3.org/1999/xlink" xml:space="preserve" xmlns:serif="http://www.serif.com/" style="fill-rule:evenodd;clip-rule:evenodd;stroke-linejoin:round;stroke-miterlimit:2;">
    <g id="Artboard2" transform="matrix(1,0,0,1,-127.044,-23.0404)">
        <rect x="127.044" y="23.04" width="1362.42" height="1554.62" style="fill:none;"/>
        <g>
            <clipPath id="_clip1">
                <rect x="127.044" y="23.04" width="1362.42" height="1554.62"/>
            </clipPath>
            <g clip-path="url(#_clip1)">
                <g id="Artboard1" transform="matrix(1,0,0,1,-694.459,-198.401)">
                    <rect x="694.503" y="198.441" width="1676.14" height="1665.33" style="fill:none;"/>
                    <g transform="matrix(1,0,0,1,0.50338,0.441096)">
                        <path d="M845.021,1690.24C845.021,1710.84 866.104,1724.67 885.021,1716.54C956.318,1685.92 969.448,1576.45 1063.34,1576.45C1172.51,1576.45 1172.51,1724.42 1281.66,1724.42C1390.82,1724.42 1390.82,1576.45 1499.98,1576.45C1609.14,1576.45 1609.14,1724.42 1718.3,1724.42C1827.46,1724.42 1827.46,1576.45 1936.62,1576.45C2030.53,1576.45 2043.66,1685.92 2114.96,1716.54C2133.88,1724.67 2154.96,1710.84 2154.96,1690.24L2154.96,930.833C2154.96,569.01 1861.72,275.688 1499.99,275.688C1138.26,275.688 845.021,569.01 845.021,930.833L845.021,1690.24" style="fill:#fcc8f5;fill-rule:nonzero;"/>
                    </g>
                    <g transform="matrix(1,0,0,1,0.50338,0.441096)">
                        <path d="M1556.46,1001.8C1556.46,1109.71 1643.92,1197.19 1751.8,1197.19C1859.69,1197.19 1947.14,1109.71 1947.14,1001.8C1947.14,893.885 1859.69,806.406 1751.8,806.406C1643.92,806.406 1556.46,893.885 1556.46,1001.8" style="fill:rgb(242,242,240);fill-rule:nonzero;"/>
                    </g>
                    <g transform="matrix(1,0,0,1,54.706,10.531)">
                        <path d="M1510.87,1001.8C1510.87,1064.87 1561.98,1116 1625.03,1116C1688.08,1116 1739.2,1064.87 1739.2,1001.8C1739.2,938.729 1688.08,887.599 1625.03,887.599C1561.98,887.599 1510.87,938.729 1510.87,1001.8" style="fill:rgb(40,41,42);fill-rule:nonzero;"/>
                    </g>
                    <g transform="matrix(1,0,0,1,0.50338,0.441096)">
                        <path d="M1040.1,1001.8C1040.1,1109.71 1127.56,1197.19 1235.44,1197.19C1343.33,1197.19 1430.79,1109.71 1430.79,1001.8C1430.79,893.885 1343.33,806.406 1235.44,806.406C1127.56,806.406 1040.1,893.885 1040.1,1001.8" style="fill:rgb(242,242,240);fill-rule:nonzero;"/>
                    </g>
                    <g transform="matrix(1,0,0,1,53.706,9.531)">
                        <path d="M994.5,1001.8C994.5,1064.87 1045.62,1116 1108.67,1116C1171.73,1116 1222.83,1064.87 1222.83,1001.8C1222.83,938.729 1171.73,887.599 1108.67,887.599C1045.62,887.599 994.5,938.729 994.5,1001.8" style="fill:rgb(40,41,42);fill-rule:nonzero;"/>
                    </g>
                </g>
            </g>
        </g>
    </g>
</svg>
